<mxfile host="app.diagrams.net" agent="Mozilla/5.0 (X11; Linux x86_64; rv:138.0) Gecko/20100101 Firefox/138.0" version="26.2.15">
  <diagram name="Page-1" id="BLFy_uhy12KRwqbqn2cZ">
    <mxGraphModel dx="983" dy="611" grid="1" gridSize="10" guides="1" tooltips="1" connect="1" arrows="1" fold="1" page="1" pageScale="1" pageWidth="850" pageHeight="1100" math="0" shadow="0">
      <root>
        <mxCell id="0" />
        <mxCell id="1" parent="0" />
        <mxCell id="W6CwBx2eMpuJ-odWLiId-12" value="" style="ellipse;whiteSpace=wrap;html=1;aspect=fixed;fillColor=none;strokeColor=#b85450;strokeWidth=3;" vertex="1" parent="1">
          <mxGeometry x="170" y="270" width="210" height="210" as="geometry" />
        </mxCell>
        <mxCell id="W6CwBx2eMpuJ-odWLiId-13" value="" style="ellipse;whiteSpace=wrap;html=1;aspect=fixed;fillColor=none;strokeColor=#82b366;strokeWidth=3;" vertex="1" parent="1">
          <mxGeometry x="310" y="270" width="210" height="210" as="geometry" />
        </mxCell>
        <mxCell id="W6CwBx2eMpuJ-odWLiId-14" value="" style="ellipse;whiteSpace=wrap;html=1;strokeWidth=2;fillWeight=2;hachureGap=8;fillColor=#007FFF;fillStyle=dots;sketch=1;strokeColor=none;" vertex="1" parent="1">
          <mxGeometry x="320" y="300" width="50" height="140" as="geometry" />
        </mxCell>
      </root>
    </mxGraphModel>
  </diagram>
</mxfile>
